<svg xmlns="http://www.w3.org/2000/svg" viewBox="0 0 64 64"><path d="M58 10h-2a1 1 0 0 0-1 1v3a2 2 0 0 1-2.147 2A2.13 2.13 0 0 1 51 13.831V11a1 1 0 0 0-1-1h-8a1 1 0 0 0-1 1v3a2 2 0 0 1-2.147 2A2.13 2.13 0 0 1 37 13.831V11a1 1 0 0 0-1-1h-8a1 1 0 0 0-1 1v3a1.983 1.983 0 0 1-.587 1.413 2.006 2.006 0 0 1-1.56.582A2.13 2.13 0 0 1 23 13.831V11a1 1 0 0 0-1-1h-8a1 1 0 0 0-1 1v3a1.983 1.983 0 0 1-.587 1.413 2 2 0 0 1-1.56.582A2.13 2.13 0 0 1 9 13.831V11a1 1 0 0 0-1-1H6a6.006 6.006 0 0 0-6 6v38a6.006 6.006 0 0 0 6 6h45a13.015 13.015 0 0 0 13-13V16a6.006 6.006 0 0 0-6-6z" style="fill:#e6edff"/><path d="M58 10h-2a1 1 0 0 0-1 1v3a2 2 0 0 1-2.147 2A2.13 2.13 0 0 1 51 13.831V11a1 1 0 0 0-1-1h-8a1 1 0 0 0-1 1v3a2 2 0 0 1-2.147 2A2.13 2.13 0 0 1 37 13.831V11a1 1 0 0 0-1-1h-8a1 1 0 0 0-1 1v3a1.983 1.983 0 0 1-.587 1.413 2.006 2.006 0 0 1-1.56.582A2.13 2.13 0 0 1 23 13.831V11a1 1 0 0 0-1-1h-8a1 1 0 0 0-1 1v3a1.983 1.983 0 0 1-.587 1.413 2 2 0 0 1-1.56.582A2.13 2.13 0 0 1 9 13.831V11a1 1 0 0 0-1-1H6a6.006 6.006 0 0 0-6 6v4h64v-4a6.006 6.006 0 0 0-6-6z" style="fill:#e63b47"/><path d="M11 4a4 4 0 0 0-4 4v6a4 4 0 0 0 8 0V8a4 4 0 0 0-4-4zM25 4a4 4 0 0 0-4 4v6a4 4 0 0 0 8 0V8a4 4 0 0 0-4-4zM39 4a4 4 0 0 0-4 4v6a4 4 0 0 0 8 0V8a4 4 0 0 0-4-4zM53 4a4 4 0 0 0-4 4v6a4 4 0 0 0 8 0V8a4 4 0 0 0-4-4z" style="fill:#4aa4f2"/><rect x="29" y="49" width="6" height="6" rx="1" ry="1" style="fill:#a8b7d4"/><rect x="21" y="49" width="6" height="6" rx="1" ry="1" style="fill:#a8b7d4"/><rect x="13" y="49" width="6" height="6" rx="1" ry="1" style="fill:#a8b7d4"/><rect x="5" y="49" width="6" height="6" rx="1" ry="1" style="fill:#a8b7d4"/><rect x="29" y="41" width="6" height="6" rx="1" ry="1" style="fill:#a8b7d4"/><rect x="21" y="41" width="6" height="6" rx="1" ry="1" style="fill:#a8b7d4"/><rect x="13" y="41" width="6" height="6" rx="1" ry="1" style="fill:#a8b7d4"/><rect x="5" y="41" width="6" height="6" rx="1" ry="1" style="fill:#a8b7d4"/><rect x="29" y="33" width="6" height="6" rx="1" ry="1" style="fill:#a8b7d4"/><rect x="21" y="33" width="6" height="6" rx="1" ry="1" style="fill:#a8b7d4"/><rect x="13" y="33" width="6" height="6" rx="1" ry="1" style="fill:#a8b7d4"/><rect x="5" y="33" width="6" height="6" rx="1" ry="1" style="fill:#a8b7d4"/><path d="M58 29H6a1 1 0 0 0 0 2h52a1 1 0 0 0 0-2zM6 27h4a1 1 0 0 0 0-2H6a1 1 0 0 0 0 2zM14 27h4a1 1 0 0 0 0-2h-4a1 1 0 0 0 0 2zM22 27h4a1 1 0 0 0 0-2h-4a1 1 0 0 0 0 2zM30 27h4a1 1 0 0 0 0-2h-4a1 1 0 0 0 0 2zM38 27h4a1 1 0 0 0 0-2h-4a1 1 0 0 0 0 2zM46 27h4a1 1 0 0 0 0-2h-4a1 1 0 0 0 0 2zM54 27h4a1 1 0 0 0 0-2h-4a1 1 0 0 0 0 2z" style="fill:#a8b7d4"/><rect x="37" y="33" width="6" height="6" rx="1" ry="1" style="fill:#a8b7d4"/><circle cx="51" cy="47" r="13" style="fill:#4aa4f2"/><path d="M56 46h-4v-4a1 1 0 0 0-2 0v4h-4a1 1 0 0 0 0 2h4v4a1 1 0 0 0 2 0v-4h4a1 1 0 0 0 0-2z" style="fill:#2a72db"/></svg>